HIERARCHY
ROOT Hips
{
	OFFSET 0.000000 97.167313 0.000000
	CHANNELS 6 Xposition Yposition Zposition Xrotation Yrotation Zrotation
	JOINT Spine
	{
		OFFSET 0.000000 13.784798 0.064400
		CHANNELS 3 Xrotation Yrotation Zrotation
		JOINT Spine1
		{
			OFFSET 0.000000 12.037903 0.404700
			CHANNELS 3 Xrotation Yrotation Zrotation
			JOINT Spine2
			{
				OFFSET 0.000000 17.795601 0.420200
				CHANNELS 3 Xrotation Yrotation Zrotation
				JOINT Neck
				{
					OFFSET 0.000000 39.131302 11.954600
					CHANNELS 3 Xrotation Yrotation Zrotation
					JOINT Head
					{
						OFFSET 0.000000 14.456192 15.627699
						CHANNELS 3 Xrotation Yrotation Zrotation
						JOINT HeadTop_End
						{
							OFFSET 0.000000 15.703506 7.603401
							CHANNELS 3 Xrotation Yrotation Zrotation
							End Site
							{
								OFFSET 0.000000 17.447403 0.000000
							}
						}
					}
				}
				JOINT LeftShoulder
				{
					OFFSET 17.399500 24.608795 1.168800
					CHANNELS 3 Xrotation Yrotation Zrotation
					JOINT LeftArm
					{
						OFFSET 18.980635 5.765305 1.818600
						CHANNELS 3 Xrotation Yrotation Zrotation
						JOINT LeftForeArm
						{
							OFFSET 49.290169 0.000000 0.000000
							CHANNELS 3 Xrotation Yrotation Zrotation
							JOINT LeftHand
							{
								OFFSET 31.562012 0.000000 0.000000
								CHANNELS 3 Xrotation Yrotation Zrotation
								JOINT LeftHandThumb1
								{
									OFFSET 6.133995 -4.388519 7.076070
									CHANNELS 3 Xrotation Yrotation Zrotation
									JOINT LeftHandThumb2
									{
										OFFSET 6.037666 -3.485840 3.485847
										CHANNELS 3 Xrotation Yrotation Zrotation
										JOINT LeftHandThumb3
										{
											OFFSET 6.496506 -3.750763 3.750761
											CHANNELS 3 Xrotation Yrotation Zrotation
											JOINT LeftHandThumb4
											{
												OFFSET 5.616882 -3.242905 3.242910
												CHANNELS 3 Xrotation Yrotation Zrotation
												End Site
												{
													OFFSET -1.254608 7.132141 0.375429
												}
											}
										}
									}
								}
								JOINT LeftHandPinky1
								{
									OFFSET 18.920792 -0.453171 -11.426712
									CHANNELS 3 Xrotation Yrotation Zrotation
									JOINT LeftHandPinky2
									{
										OFFSET 4.919586 0.000000 0.000000
										CHANNELS 3 Xrotation Yrotation Zrotation
										JOINT LeftHandPinky3
										{
											OFFSET 5.233047 0.000000 0.000000
											CHANNELS 3 Xrotation Yrotation Zrotation
											JOINT LeftHandPinky4
											{
												OFFSET 5.571716 0.000000 0.000000
												CHANNELS 3 Xrotation Yrotation Zrotation
												End Site
												{
													OFFSET -3.459808 4.342407 -0.466164
												}
											}
										}
									}
								}
								JOINT LeftHandRing1
								{
									OFFSET 22.726120 -0.094986 -6.500475
									CHANNELS 3 Xrotation Yrotation Zrotation
									JOINT LeftHandRing2
									{
										OFFSET 6.408615 0.000000 0.000000
										CHANNELS 3 Xrotation Yrotation Zrotation
										JOINT LeftHandRing3
										{
											OFFSET 6.150223 0.000000 0.000000
											CHANNELS 3 Xrotation Yrotation Zrotation
											JOINT LeftHandRing4
											{
												OFFSET 6.145386 0.000000 0.000000
												CHANNELS 3 Xrotation Yrotation Zrotation
												End Site
												{
													OFFSET -3.671402 4.923981 -0.202372
												}
											}
										}
									}
								}
								JOINT LeftHandMiddle1
								{
									OFFSET 23.373947 0.000000 0.000001
									CHANNELS 3 Xrotation Yrotation Zrotation
									JOINT LeftHandMiddle2
									{
										OFFSET 6.996567 0.000000 0.000000
										CHANNELS 3 Xrotation Yrotation Zrotation
										JOINT LeftHandMiddle3
										{
											OFFSET 7.015945 0.000000 0.000000
											CHANNELS 3 Xrotation Yrotation Zrotation
											JOINT LeftHandMiddle4
											{
												OFFSET 7.721573 0.000000 0.000000
												CHANNELS 3 Xrotation Yrotation Zrotation
												End Site
												{
													OFFSET -4.651108 6.158463 0.251582
												}
											}
										}
									}
								}
								JOINT LeftHandIndex1
								{
									OFFSET 21.310577 -0.490082 6.209344
									CHANNELS 3 Xrotation Yrotation Zrotation
									JOINT LeftHandIndex2
									{
										OFFSET 7.536453 0.000000 0.000000
										CHANNELS 3 Xrotation Yrotation Zrotation
										JOINT LeftHandIndex3
										{
											OFFSET 7.512344 0.000000 0.000000
											CHANNELS 3 Xrotation Yrotation Zrotation
											JOINT LeftHandIndex4
											{
												OFFSET 10.212402 0.000000 0.000001
												CHANNELS 3 Xrotation Yrotation Zrotation
												End Site
												{
													OFFSET -5.180801 8.690506 1.388433
												}
											}
										}
									}
								}
							}
						}
					}
				}
				JOINT RightShoulder
				{
					OFFSET -17.399500 24.608795 1.168800
					CHANNELS 3 Xrotation Yrotation Zrotation
					JOINT RightArm
					{
						OFFSET -18.980635 5.765305 1.818600
						CHANNELS 3 Xrotation Yrotation Zrotation
						JOINT RightForeArm
						{
							OFFSET -49.290169 0.000000 0.000000
							CHANNELS 3 Xrotation Yrotation Zrotation
							JOINT RightHand
							{
								OFFSET -31.562012 0.000000 0.000000
								CHANNELS 3 Xrotation Yrotation Zrotation
								JOINT RightHandThumb1
								{
									OFFSET -6.133995 -4.388519 7.076070
									CHANNELS 3 Xrotation Yrotation Zrotation
									JOINT RightHandThumb2
									{
										OFFSET -6.037666 -3.485840 3.485847
										CHANNELS 3 Xrotation Yrotation Zrotation
										JOINT RightHandThumb3
										{
											OFFSET -6.496506 -3.750763 3.750761
											CHANNELS 3 Xrotation Yrotation Zrotation
											JOINT RightHandThumb4
											{
												OFFSET -5.616882 -3.242905 3.242910
												CHANNELS 3 Xrotation Yrotation Zrotation
												End Site
												{
													OFFSET 1.254608 7.132141 0.375429
												}
											}
										}
									}
								}
								JOINT RightHandIndex1
								{
									OFFSET -21.310577 -0.490082 6.209344
									CHANNELS 3 Xrotation Yrotation Zrotation
									JOINT RightHandIndex2
									{
										OFFSET -7.536453 0.000000 0.000000
										CHANNELS 3 Xrotation Yrotation Zrotation
										JOINT RightHandIndex3
										{
											OFFSET -7.512344 0.000000 0.000000
											CHANNELS 3 Xrotation Yrotation Zrotation
											JOINT RightHandIndex4
											{
												OFFSET -10.212402 0.000000 0.000001
												CHANNELS 3 Xrotation Yrotation Zrotation
												End Site
												{
													OFFSET 5.180801 8.690506 1.388433
												}
											}
										}
									}
								}
								JOINT RightHandMiddle1
								{
									OFFSET -23.373947 0.000000 0.000001
									CHANNELS 3 Xrotation Yrotation Zrotation
									JOINT RightHandMiddle2
									{
										OFFSET -6.996567 0.000000 0.000000
										CHANNELS 3 Xrotation Yrotation Zrotation
										JOINT RightHandMiddle3
										{
											OFFSET -7.015945 0.000000 0.000000
											CHANNELS 3 Xrotation Yrotation Zrotation
											JOINT RightHandMiddle4
											{
												OFFSET -7.721573 0.000000 0.000000
												CHANNELS 3 Xrotation Yrotation Zrotation
												End Site
												{
													OFFSET 4.651108 6.158463 0.251582
												}
											}
										}
									}
								}
								JOINT RightHandRing1
								{
									OFFSET -22.726120 -0.094986 -6.500475
									CHANNELS 3 Xrotation Yrotation Zrotation
									JOINT RightHandRing2
									{
										OFFSET -6.408615 0.000000 0.000000
										CHANNELS 3 Xrotation Yrotation Zrotation
										JOINT RightHandRing3
										{
											OFFSET -6.150223 0.000000 0.000000
											CHANNELS 3 Xrotation Yrotation Zrotation
											JOINT RightHandRing4
											{
												OFFSET -6.145386 0.000000 0.000000
												CHANNELS 3 Xrotation Yrotation Zrotation
												End Site
												{
													OFFSET 3.671402 4.923981 -0.202372
												}
											}
										}
									}
								}
								JOINT RightHandPinky1
								{
									OFFSET -18.920792 -0.453171 -11.426712
									CHANNELS 3 Xrotation Yrotation Zrotation
									JOINT RightHandPinky2
									{
										OFFSET -4.919586 0.000000 0.000000
										CHANNELS 3 Xrotation Yrotation Zrotation
										JOINT RightHandPinky3
										{
											OFFSET -5.233047 0.000000 0.000000
											CHANNELS 3 Xrotation Yrotation Zrotation
											JOINT RightHandPinky4
											{
												OFFSET -5.571716 0.000000 0.000000
												CHANNELS 3 Xrotation Yrotation Zrotation
												End Site
												{
													OFFSET 3.459808 4.342407 -0.466164
												}
											}
										}
									}
								}
							}
						}
					}
				}
			}
		}
	}
	JOINT LeftUpLeg
	{
		OFFSET 19.899099 -7.885101 -3.429500
		CHANNELS 3 Xrotation Yrotation Zrotation
		JOINT LeftLeg
		{
			OFFSET 1.745560 -36.997807 10.304700
			CHANNELS 3 Xrotation Yrotation Zrotation
			JOINT LeftFoot
			{
				OFFSET -1.745558 -29.803308 -13.615400
				CHANNELS 3 Xrotation Yrotation Zrotation
				JOINT LeftToeBase
				{
					OFFSET 1.181900 -18.539904 15.226099
					CHANNELS 3 Xrotation Yrotation Zrotation
					JOINT LeftToe_End
					{
						OFFSET -0.863701 1.402801 16.534700
						CHANNELS 3 Xrotation Yrotation Zrotation
						End Site
						{
							OFFSET 0.000000 16.616566 0.000000
						}
					}
				}
			}
		}
	}
	JOINT RightUpLeg
	{
		OFFSET -19.899099 -7.885101 -3.429500
		CHANNELS 3 Xrotation Yrotation Zrotation
		JOINT RightLeg
		{
			OFFSET -1.745560 -36.997807 10.304700
			CHANNELS 3 Xrotation Yrotation Zrotation
			JOINT RightFoot
			{
				OFFSET 1.745558 -29.803308 -13.615400
				CHANNELS 3 Xrotation Yrotation Zrotation
				JOINT RightToeBase
				{
					OFFSET -1.181900 -18.539904 15.226099
					CHANNELS 3 Xrotation Yrotation Zrotation
					JOINT RightToe_End
					{
						OFFSET 0.863701 1.402801 16.534700
						CHANNELS 3 Xrotation Yrotation Zrotation
						End Site
						{
							OFFSET 0.000000 16.616566 0.000000
						}
					}
				}
			}
		}
	}
}
MOTION
Frames: 5
Frame Time: 0.033333
1.163935 87.820877 4.502681 -4.724855 0.229981 0.322788 14.364137 -1.945190 0.161115 14.141141 -0.507934 0.530376 14.138587 -0.526632 0.561748 3.960977 -3.583343 2.477007 13.231365 -25.081068 16.781749 -0.000000 -0.000001 0.000001 -0.654167 -14.856288 -21.978666 -32.555420 -16.226518 -52.642939 -0.000007 -4.569639 -0.000007 33.829169 -6.878233 -2.391726 -0.266443 4.548706 10.792686 14.081240 6.218287 10.788941 -1.566720 -26.614869 15.516520 -0.000001 -0.000000 0.000000 0.758058 5.168008 -23.679902 0.713319 2.803467 -28.545317 0.183451 1.456053 -14.361485 0.000002 0.000003 0.000003 1.739688 8.580070 -17.229173 1.308148 3.691252 -39.016762 0.356839 2.015146 -20.081142 -0.000002 0.000001 0.000002 1.303309 7.387718 -16.322359 0.455348 2.266358 -22.717931 0.407964 2.149769 -21.488265 0.000000 0.000000 0.000008 0.204043 3.652461 -14.856488 0.530644 2.438279 -24.552508 0.191714 1.487927 -14.683187 -0.000001 0.000001 0.000001 0.098833 7.793635 22.492749 -29.529380 29.042111 56.645549 -0.000003 10.667062 0.000023 25.572278 9.898258 11.338403 -6.439861 1.666965 -14.228007 17.750577 -20.831100 7.630765 -18.164475 14.323061 -9.874804 0.000006 -0.000002 0.000002 -1.315343 3.015278 14.433163 0.617903 -2.320005 29.823768 0.424843 -1.945111 24.639071 0.000003 -0.000001 0.000003 -1.183803 0.855442 17.866347 1.041091 -2.936773 39.031946 0.324031 -1.708436 21.477666 0.000002 0.000001 -0.000001 -0.099481 -2.403351 15.770191 1.477872 -3.404867 46.915917 0.279698 -1.591199 19.937805 -0.000002 -0.000001 -0.000002 -12.816759 -11.029177 13.056746 1.001221 -2.886954 38.247068 0.242501 -1.484694 18.551969 -0.000000 -0.000003 0.000000 -23.558799 3.902758 5.558413 45.963533 8.584539 0.356770 -1.130548 2.906671 -6.872061 -9.017969 0.080927 -0.432586 0.000001 -0.000000 -0.000000 -17.852784 -6.319108 3.519827 33.351400 3.599106 -0.841727 -10.786918 1.054688 -3.807845 1.266464 0.001196 -0.358346 -0.000000 0.000000 -0.000000 
0.615605 87.625534 1.841869 -4.635383 1.578283 -0.024833 13.946735 -2.095474 0.406272 14.048307 -0.536813 0.579450 14.045272 -0.556202 0.611772 3.955292 -3.625796 2.417398 12.968850 -25.457689 16.569192 -0.000002 0.000001 -0.000001 -0.716993 -15.245138 -22.167765 -33.754590 -18.159673 -53.988988 0.000003 -5.924619 -0.000003 35.777883 -8.163532 -2.086991 -0.266445 4.548704 10.792683 14.085041 6.226809 10.784463 -1.690026 -26.705474 15.774052 -0.000001 0.000001 0.000001 0.647223 4.982150 -23.658501 0.713297 2.803464 -28.545341 0.184748 1.461095 -14.412401 0.000002 0.000003 -0.000000 1.649981 8.249835 -17.424911 1.321385 3.707495 -39.221733 0.356190 2.013387 -20.062841 -0.000001 -0.000000 0.000002 1.246398 7.193373 -16.343934 0.455339 2.266359 -22.717942 0.409654 2.154071 -21.533346 0.000001 -0.000003 0.000004 0.109383 3.273026 -14.291295 0.526200 2.428525 -24.447513 0.191724 1.487922 -14.683194 -0.000000 0.000004 -0.000004 0.159452 7.326659 22.266453 -27.581016 26.609121 55.318348 0.000006 10.027845 -0.000001 24.306497 10.002879 12.207620 -6.439865 1.666966 -14.228011 17.638754 -20.664228 7.514461 -18.113889 14.062565 -9.746655 -0.000002 -0.000001 -0.000000 -1.328816 2.858085 14.654325 0.617894 -2.320024 29.823755 0.424838 -1.945128 24.639069 -0.000000 -0.000001 -0.000001 -1.147063 0.753462 17.811610 1.039818 -2.935208 39.007077 0.325068 -1.711043 21.512393 -0.000001 0.000006 -0.000001 -0.082230 -2.460777 15.715447 1.473994 -3.401228 46.850569 0.280305 -1.592851 19.959602 -0.000000 0.000004 -0.000005 -12.845483 -10.978246 12.839072 0.996197 -2.880581 38.147238 0.240898 -1.479908 18.489997 -0.000001 0.000002 0.000001 -20.272367 4.792117 5.813580 49.088607 8.561799 -0.341187 -4.180566 2.309608 -6.941682 -12.003745 0.119507 -0.491716 -0.000000 0.000000 -0.000000 -19.650203 -6.548533 4.033683 32.684115 2.229691 -0.611360 -8.746489 1.015298 -4.176595 2.166549 0.014610 -1.250219 0.000000 -0.000000 -0.000000 
0.052302 87.387741 -0.900835 -4.670391 3.220570 -0.438465 13.686724 -2.552591 0.786646 13.968400 -0.646115 0.642739 13.964623 -0.663460 0.677514 3.989533 -3.654465 2.388955 12.970708 -25.732212 16.484271 -0.000003 -0.000001 -0.000000 -0.754831 -15.571496 -22.179897 -34.495184 -20.154147 -55.366401 -0.000005 -8.606170 -0.000016 35.086631 -8.651439 -1.481490 -0.266445 4.548707 10.792688 13.951684 5.928224 10.941601 -1.608930 -26.609293 15.448669 -0.000001 0.000001 -0.000001 0.600856 4.896578 -23.078878 0.713951 2.804659 -28.558611 0.185454 1.463842 -14.440130 0.000003 0.000000 -0.000006 1.530732 8.011873 -16.853799 1.332608 3.721183 -39.395155 0.355946 2.012691 -20.055604 -0.000002 -0.000002 0.000001 1.184088 7.084172 -15.836711 0.455347 2.266339 -22.717942 0.409004 2.152417 -21.516016 -0.000000 -0.000003 0.000004 0.062162 3.019996 -13.009070 0.518143 2.410754 -24.257005 0.191722 1.487933 -14.683175 -0.000001 -0.000000 -0.000001 0.212094 6.883168 22.156854 -26.044602 24.481739 54.199819 0.000006 9.143855 0.000006 24.472587 9.239351 12.374843 -6.439866 1.666968 -14.228011 17.427607 -20.344931 7.294179 -18.039202 13.716236 -9.590759 0.000001 0.000003 0.000003 -1.357382 2.674289 15.067112 0.617899 -2.320018 29.823748 0.424507 -1.944395 24.629514 -0.000003 0.000003 -0.000001 -1.092735 0.586756 17.786945 1.040523 -2.936093 39.021100 0.324608 -1.709878 21.496801 0.000001 0.000003 -0.000001 -0.043993 -2.599907 15.758700 1.465612 -3.393395 46.709300 0.279283 -1.590019 19.922584 -0.000001 0.000001 0.000004 -12.846676 -11.110720 12.618937 0.994539 -2.878498 38.114467 0.240370 -1.478322 18.469573 -0.000002 -0.000001 0.000000 -16.573177 5.681894 5.879494 50.920867 8.284128 -0.765715 -6.703774 1.274732 -6.223825 -15.073230 0.273951 -0.925482 -0.000000 0.000000 -0.000000 -21.354419 -6.810625 4.573821 31.760530 0.752904 -0.353218 -6.520141 0.986947 -4.730310 2.809418 0.007433 -0.894735 0.000000 -0.000000 -0.000000 
-0.505802 87.280792 -3.726119 -4.838326 4.851005 -0.748417 13.661464 -3.275231 1.124712 13.931508 -0.830421 0.680667 13.927360 -0.843705 0.719329 4.012982 -3.644683 2.412871 13.127602 -25.725108 16.537572 0.000003 -0.000001 0.000001 -0.741175 -15.612450 -22.013688 -35.129388 -22.611973 -56.817926 0.000001 -10.841136 -0.000013 33.553776 -9.297568 -1.057763 -0.266440 4.548704 10.792682 13.873073 5.750291 11.034666 -1.499307 -26.507119 15.121416 0.000003 0.000002 -0.000002 0.612092 4.907553 -22.592727 0.724828 2.824483 -28.779610 0.184536 1.460330 -14.404731 -0.000001 -0.000003 0.000001 1.493494 8.013987 -16.351288 1.333610 3.722403 -39.410618 0.355437 2.011312 -20.041339 -0.000001 -0.000003 0.000001 1.152436 7.057336 -15.428209 0.455353 2.266383 -22.718297 0.407847 2.149476 -21.485038 -0.000002 -0.000003 0.000008 0.051782 2.930372 -12.216176 0.518161 2.410737 -24.256609 0.191563 1.487333 -14.677323 -0.000001 -0.000002 -0.000001 0.230677 6.680782 22.285628 -24.806914 22.883434 53.046244 0.000001 8.152365 0.000048 25.830507 8.184196 12.732035 -6.439866 1.666968 -14.228009 16.965430 -19.624781 6.808272 -17.966650 13.493209 -9.564952 0.000005 0.000000 -0.000000 -1.366795 2.496790 15.288880 0.617917 -2.320021 29.823755 0.422796 -1.940663 24.578934 -0.000002 -0.000001 -0.000001 -1.038085 0.430776 17.714517 1.035072 -2.929349 38.914391 0.323642 -1.707444 21.464600 -0.000000 0.000002 -0.000004 0.018424 -2.824767 15.821565 1.468634 -3.396229 46.760278 0.280105 -1.592296 19.952355 -0.000002 -0.000002 -0.000003 -12.824861 -11.413991 12.378077 0.993261 -2.876858 38.089086 0.241137 -1.480609 18.499113 -0.000000 -0.000001 0.000007 -12.385904 6.760565 5.675127 50.931167 7.165101 -0.985720 -8.083257 1.224744 -5.375124 -18.635683 0.412433 -1.163744 -0.000000 0.000003 -0.000000 -22.737949 -6.924032 4.960366 30.285424 -0.811108 -0.226800 -3.906218 0.903574 -5.227212 3.260288 0.001418 -0.392329 -0.000000 0.000000 0.000000 
-1.002030 87.180061 -6.562749 -4.880773 6.378795 -0.854755 13.563945 -3.996605 1.308385 13.897415 -1.010895 0.707935 13.893230 -1.020498 0.750261 4.059477 -3.619701 2.447279 13.349816 -25.621107 16.585057 0.000001 -0.000001 0.000000 -0.744642 -15.796272 -21.863577 -35.791018 -25.272041 -58.260120 0.000002 -12.668365 -0.000009 32.742725 -10.217048 -1.074703 -0.266435 4.548706 10.792684 13.585776 5.084281 11.377914 -1.110882 -26.156768 13.931402 -0.000001 -0.000000 -0.000003 0.641854 4.954174 -20.925169 0.720823 2.817188 -28.698211 0.182076 1.450654 -14.307155 0.000003 0.000001 -0.000004 1.387061 8.184352 -14.377820 1.325697 3.712748 -39.288187 0.350954 1.998997 -19.913184 -0.000001 0.000000 -0.000000 1.056943 7.052175 -13.850474 0.454072 2.263302 -22.685671 0.404273 2.140376 -21.389560 0.000001 -0.000001 0.000004 0.043190 2.719579 -9.454739 0.511803 2.396645 -24.105662 0.195790 1.503420 -14.839534 -0.000002 0.000001 0.000002 0.240229 6.575357 22.363342 -23.802318 21.547305 51.952977 -0.000000 7.195183 0.000046 27.429157 6.847411 12.967042 -6.439862 1.666963 -14.228011 16.392790 -18.690135 6.198812 -17.908466 13.394241 -9.635167 -0.000002 -0.000001 -0.000001 -1.392260 2.349841 15.683687 0.617915 -2.320019 29.823744 0.421050 -1.936835 24.527329 -0.000001 0.000001 -0.000004 -0.982149 0.239521 17.765979 1.035514 -2.929888 38.922998 0.323649 -1.707483 21.465078 -0.000000 0.000002 -0.000001 0.088455 -3.082050 16.125587 1.467465 -3.395129 46.740241 0.280594 -1.593660 19.970005 0.000001 0.000003 -0.000005 -12.788957 -11.811174 12.152273 0.994157 -2.877995 38.106626 0.239939 -1.477010 18.452591 0.000001 0.000000 0.000001 -8.042561 7.421449 5.188046 49.207063 6.008474 -1.101140 -8.245281 1.330910 -5.823969 -23.339807 0.084513 -0.190946 -0.000000 -0.000000 -0.000000 -24.312869 -6.840769 4.927491 28.774433 -2.326120 -0.144967 -1.169614 0.786570 -5.451768 3.711226 0.000357 -0.197567 0.000000 0.000000 -0.000000 
